<svg width="24" height="24" viewBox="0 0 24 24" fill="none" xmlns="http://www.w3.org/2000/svg">
<path d="M21.2754 1.90538C18.1115 4.64363 15.4347 7.25026 12.9841 10.6511C11.9033 12.1511 10.7015 13.9166 9.91585 15.5835C9.46735 16.4674 8.65885 17.8485 8.38322 19.1764C6.87572 17.7739 5.25647 16.182 3.59972 14.9351C2.41885 14.0468 -0.982401 15.858 0.402099 16.8998C2.88347 18.7661 4.9471 21.0908 7.3606 23.0404C8.3701 23.8549 10.6073 22.086 11.1331 21.3439C12.8588 18.8989 13.0947 15.9101 14.3525 13.2431C16.2729 9.16426 19.6786 5.81363 23.0412 2.90401C25.2691 0.826131 22.9681 0.442881 21.2787 1.90538" fill="#003DC9"/>
</svg>
