<svg width="61" height="60" viewBox="0 0 61 60" fill="none" xmlns="http://www.w3.org/2000/svg">
<path d="M36.6784 21.825C36.3817 21.825 36.0917 21.913 35.8451 22.0778C35.5984 22.2426 35.4061 22.4769 35.2926 22.751C35.1791 23.0251 35.1494 23.3267 35.2072 23.6176C35.2651 23.9086 35.408 24.1759 35.6178 24.3857C35.8275 24.5954 36.0948 24.7383 36.3858 24.7962C36.6768 24.8541 36.9784 24.8244 37.2524 24.7108C37.5265 24.5973 37.7608 24.405 37.9256 24.1584C38.0904 23.9117 38.1784 23.6217 38.1784 23.325C38.1784 22.9272 38.0204 22.5456 37.7391 22.2643C37.4578 21.983 37.0762 21.825 36.6784 21.825ZM42.4284 24.85C42.4041 23.8129 42.2099 22.7868 41.8534 21.8125C41.5356 20.9789 41.0409 20.2241 40.4034 19.6C39.7844 18.9593 39.0279 18.4677 38.1909 18.1625C37.2192 17.7952 36.192 17.5965 35.1534 17.575C33.8284 17.5 33.4034 17.5 30.0034 17.5C26.6034 17.5 26.1784 17.5 24.8534 17.575C23.8149 17.5965 22.7876 17.7952 21.8159 18.1625C20.9805 18.4708 20.2246 18.962 19.6034 19.6C18.9627 20.219 18.4711 20.9755 18.1659 21.8125C17.7986 22.7842 17.5999 23.8114 17.5784 24.85C17.5034 26.175 17.5034 26.6 17.5034 30C17.5034 33.4 17.5034 33.825 17.5784 35.15C17.5999 36.1886 17.7986 37.2158 18.1659 38.1875C18.4711 39.0245 18.9627 39.781 19.6034 40.4C20.2246 41.038 20.9805 41.5292 21.8159 41.8375C22.7876 42.2048 23.8149 42.4035 24.8534 42.425C26.1784 42.5 26.6034 42.5 30.0034 42.5C33.4034 42.5 33.8284 42.5 35.1534 42.425C36.192 42.4035 37.2192 42.2048 38.1909 41.8375C39.0279 41.5323 39.7844 41.0407 40.4034 40.4C41.0437 39.7782 41.5388 39.0227 41.8534 38.1875C42.2099 37.2132 42.4041 36.1871 42.4284 35.15C42.4284 33.825 42.5034 33.4 42.5034 30C42.5034 26.6 42.5034 26.175 42.4284 24.85ZM40.1784 35C40.1693 35.7935 40.0256 36.5796 39.7534 37.325C39.5538 37.869 39.2333 38.3605 38.8159 38.7625C38.4105 39.1756 37.92 39.4955 37.3784 39.7C36.633 39.9722 35.8469 40.1159 35.0534 40.125C33.8034 40.1875 33.3409 40.2 30.0534 40.2C26.7659 40.2 26.3034 40.2 25.0534 40.125C24.2295 40.1404 23.4092 40.0136 22.6284 39.75C22.1106 39.5351 21.6426 39.216 21.2534 38.8125C20.8385 38.4109 20.522 37.919 20.3284 37.375C20.0232 36.6189 19.854 35.8149 19.8284 35C19.8284 33.75 19.7534 33.2875 19.7534 30C19.7534 26.7125 19.7534 26.25 19.8284 25C19.834 24.1888 19.9821 23.3849 20.2659 22.625C20.486 22.0974 20.8237 21.6271 21.2534 21.25C21.6332 20.8202 22.1025 20.4789 22.6284 20.25C23.3904 19.9751 24.1934 19.8313 25.0034 19.825C26.2534 19.825 26.7159 19.75 30.0034 19.75C33.2909 19.75 33.7534 19.75 35.0034 19.825C35.7969 19.8341 36.583 19.9778 37.3284 20.25C37.8965 20.4608 38.4063 20.8036 38.8159 21.25C39.2255 21.634 39.5456 22.1034 39.7534 22.625C40.0312 23.3862 40.175 24.1897 40.1784 25C40.2409 26.25 40.2534 26.7125 40.2534 30C40.2534 33.2875 40.2409 33.75 40.1784 35ZM30.0034 23.5875C28.7357 23.59 27.4971 23.9682 26.4442 24.6743C25.3914 25.3804 24.5714 26.3827 24.088 27.5547C23.6045 28.7266 23.4793 30.0156 23.7282 31.2587C23.977 32.5017 24.5887 33.6432 25.486 34.5387C26.3833 35.4343 27.5259 36.0438 28.7695 36.2902C30.0131 36.5366 31.3018 36.4089 32.4728 35.9232C33.6438 35.4375 34.6445 34.6155 35.3486 33.5613C36.0526 32.507 36.4284 31.2677 36.4284 30C36.4301 29.1564 36.2649 28.3208 35.9425 27.5412C35.62 26.7616 35.1466 26.0535 34.5495 25.4576C33.9524 24.8616 33.2434 24.3896 32.4632 24.0687C31.683 23.7477 30.847 23.5842 30.0034 23.5875ZM30.0034 34.1625C29.1802 34.1625 28.3754 33.9184 27.6909 33.461C27.0063 33.0036 26.4728 32.3535 26.1578 31.5929C25.8427 30.8323 25.7603 29.9954 25.9209 29.1879C26.0815 28.3805 26.478 27.6388 27.0601 27.0567C27.6422 26.4745 28.3839 26.0781 29.1914 25.9175C29.9988 25.7569 30.8357 25.8393 31.5963 26.1544C32.3569 26.4694 33.007 27.0029 33.4644 27.6874C33.9218 28.372 34.1659 29.1767 34.1659 30C34.1659 30.5466 34.0583 31.0879 33.8491 31.5929C33.6399 32.0979 33.3333 32.5568 32.9468 32.9433C32.5602 33.3299 32.1014 33.6365 31.5963 33.8456C31.0913 34.0548 30.55 34.1625 30.0034 34.1625Z" fill="#003DC9"/>
<circle cx="30.0034" cy="30" r="29" stroke="#003DC9" stroke-width="2"/>
</svg>
