<svg width="61" height="60" viewBox="0 0 61 60" fill="none" xmlns="http://www.w3.org/2000/svg">
<path d="M35.8784 24.2488C34.7594 24.2483 33.6576 24.5251 32.6717 25.0544C32.5817 24.8175 32.4217 24.6135 32.2131 24.4696C32.0044 24.3257 31.7569 24.2486 31.5034 24.2488H26.5034C26.3393 24.2487 26.1767 24.2809 26.025 24.3437C25.8733 24.4065 25.7354 24.4986 25.6194 24.6147C25.5033 24.7308 25.4112 24.8686 25.3484 25.0203C25.2856 25.172 25.2533 25.3346 25.2534 25.4988V40.4988C25.2533 40.6629 25.2856 40.8255 25.3484 40.9772C25.4112 41.1289 25.5033 41.2668 25.6193 41.3829C25.7354 41.4989 25.8733 41.591 26.025 41.6538C26.1767 41.7166 26.3393 41.7489 26.5034 41.7488H31.5034C31.6676 41.7489 31.8302 41.7166 31.9819 41.6538C32.1336 41.591 32.2714 41.4989 32.3875 41.3829C32.5036 41.2668 32.5957 41.1289 32.6585 40.9772C32.7213 40.8255 32.7535 40.6629 32.7534 40.4988V33.6238C32.7534 33.2922 32.8851 32.9743 33.1196 32.7399C33.354 32.5055 33.6719 32.3738 34.0034 32.3738C34.335 32.3738 34.6529 32.5055 34.8873 32.7399C35.1217 32.9743 35.2534 33.2922 35.2534 33.6238V40.4988C35.2533 40.6629 35.2856 40.8255 35.3484 40.9772C35.4112 41.1289 35.5033 41.2668 35.6193 41.3829C35.7354 41.4989 35.8733 41.591 36.025 41.6538C36.1767 41.7166 36.3393 41.7489 36.5034 41.7488H41.5034C41.6676 41.7489 41.8302 41.7166 41.9819 41.6538C42.1336 41.591 42.2714 41.4989 42.3875 41.3829C42.5036 41.2668 42.5957 41.1289 42.6585 40.9772C42.7213 40.8255 42.7535 40.6629 42.7534 40.4988V31.1238C42.7512 29.3011 42.0261 27.5537 40.7373 26.2649C39.4485 24.9761 37.7011 24.251 35.8784 24.2488ZM40.2534 39.2488H37.7534V33.6238C37.7534 32.6292 37.3584 31.6754 36.6551 30.9721C35.9518 30.2688 34.998 29.8738 34.0034 29.8738C33.0089 29.8738 32.0551 30.2688 31.3518 30.9721C30.6485 31.6754 30.2534 32.6292 30.2534 33.6238V39.2488H27.7534V26.7488H30.2534V27.6277C30.2536 27.8867 30.3342 28.1392 30.484 28.3505C30.6339 28.5617 30.8456 28.7213 31.09 28.807C31.3344 28.8928 31.5994 28.9005 31.8484 28.8292C32.0973 28.7579 32.3181 28.611 32.48 28.4089C33.041 27.6965 33.8104 27.177 34.6809 26.923C35.5514 26.669 36.4795 26.6932 37.3356 26.9921C38.1917 27.2911 38.933 27.85 39.4561 28.5907C39.9792 29.3314 40.258 30.217 40.2534 31.1238V39.2488ZM22.7534 24.2488H17.7534C17.5893 24.2487 17.4267 24.2809 17.275 24.3437C17.1233 24.4065 16.9854 24.4986 16.8694 24.6147C16.7533 24.7308 16.6612 24.8686 16.5984 25.0203C16.5356 25.172 16.5033 25.3346 16.5034 25.4988V40.4988C16.5033 40.6629 16.5356 40.8255 16.5984 40.9772C16.6612 41.1289 16.7533 41.2668 16.8693 41.3829C16.9854 41.4989 17.1233 41.591 17.275 41.6538C17.4267 41.7166 17.5893 41.7489 17.7534 41.7488H22.7534C22.9176 41.7489 23.0802 41.7166 23.2319 41.6538C23.3836 41.591 23.5214 41.4989 23.6375 41.3829C23.7536 41.2668 23.8457 41.1289 23.9085 40.9772C23.9713 40.8255 24.0035 40.6629 24.0034 40.4988V25.4988C24.0035 25.3346 23.9713 25.172 23.9085 25.0203C23.8457 24.8686 23.7536 24.7308 23.6375 24.6147C23.5214 24.4986 23.3836 24.4065 23.2319 24.3437C23.0802 24.2809 22.9176 24.2487 22.7534 24.2488ZM21.5034 39.2488H19.0034V26.7488H21.5034V39.2488ZM20.2718 14.9275C19.7247 14.8948 19.1767 14.9736 18.6611 15.1593C18.1455 15.345 17.673 15.6336 17.2725 16.0076C16.8719 16.3816 16.5516 16.8332 16.331 17.3349C16.1104 17.8366 15.9942 18.3779 15.9894 18.9259C15.9846 19.4739 16.0913 20.0171 16.303 20.5226C16.5148 21.0281 16.8271 21.4852 17.2211 21.8662C17.615 22.2472 18.0823 22.544 18.5946 22.7387C19.1069 22.9334 19.6534 23.0219 20.2009 22.9988H20.2363C20.7848 23.0313 21.3342 22.9517 21.8509 22.7648C22.3676 22.5779 22.8408 22.2876 23.2415 21.9116C23.6422 21.5357 23.962 21.082 24.1815 20.5782C24.4009 20.0745 24.5153 19.5313 24.5177 18.9818C24.5201 18.4324 24.4105 17.8882 24.1955 17.3825C23.9805 16.8769 23.6646 16.4204 23.2672 16.0409C22.8698 15.6615 22.3992 15.367 21.8842 15.1756C21.3692 14.9842 20.8205 14.8997 20.2717 14.9275H20.2718ZM20.2364 20.4988H20.2009C19.9848 20.525 19.7655 20.5047 19.5578 20.4393C19.3501 20.3739 19.1588 20.2648 18.9967 20.1193C18.8347 19.9739 18.7056 19.7955 18.6181 19.5961C18.5306 19.3967 18.4868 19.1809 18.4895 18.9631C18.4895 18.0305 19.189 17.4275 20.2718 17.4275C20.4901 17.3984 20.7122 17.4164 20.923 17.4804C21.1338 17.5443 21.3285 17.6527 21.4939 17.7982C21.6593 17.9437 21.7916 18.123 21.8819 18.3239C21.9722 18.5249 22.0184 18.7428 22.0174 18.9631C22.0174 19.8958 21.3179 20.4988 20.2364 20.4988Z" fill="#003DC9"/>
<circle cx="30.0034" cy="30" r="29" stroke="#003DC9" stroke-width="2"/>
</svg>
