<svg width="61" height="60" viewBox="0 0 61 60" fill="none" xmlns="http://www.w3.org/2000/svg">
<path d="M42.5034 22.25C41.5638 22.6576 40.5702 22.9271 39.5534 23.05C40.6261 22.4092 41.43 21.401 41.8159 20.2125C40.8079 20.8126 39.7044 21.2354 38.5534 21.4625C37.7841 20.6282 36.7596 20.0729 35.6407 19.8836C34.5217 19.6943 33.3716 19.8817 32.3707 20.4165C31.3697 20.9513 30.5746 21.8032 30.11 22.8386C29.6454 23.8739 29.5375 25.0343 29.8034 26.1375C27.7652 26.0344 25.7715 25.5037 23.9517 24.5798C22.132 23.656 20.527 22.3596 19.2409 20.775C18.7898 21.5627 18.5528 22.4548 18.5534 23.3625C18.5518 24.2055 18.7587 25.0358 19.1556 25.7795C19.5525 26.5232 20.1272 27.1572 20.8284 27.625C20.0134 27.6028 19.2158 27.3841 18.5034 26.9875V27.05C18.5095 28.2311 18.9234 29.3739 19.6751 30.285C20.4267 31.1961 21.47 31.8196 22.6284 32.05C22.1825 32.1857 21.7195 32.2573 21.2534 32.2625C20.9308 32.2587 20.6089 32.2295 20.2909 32.175C20.6208 33.191 21.2592 34.0789 22.1173 34.7152C22.9753 35.3515 24.0104 35.7045 25.0784 35.725C23.2749 37.1441 21.0483 37.9186 18.7534 37.925C18.3356 37.9264 17.9181 37.9013 17.5034 37.85C19.8465 39.3628 22.5769 40.1659 25.3659 40.1625C27.2905 40.1825 29.1998 39.8188 30.9823 39.0926C32.7648 38.3664 34.3847 37.2924 35.7474 35.9331C37.1101 34.5739 38.1884 32.9568 38.9191 31.1762C39.6499 29.3955 40.0185 27.4872 40.0034 25.5625C40.0034 25.35 40.0034 25.125 40.0034 24.9C40.9843 24.1685 41.8303 23.2718 42.5034 22.25Z" fill="#003DC9"/>
<circle cx="30.0034" cy="30" r="29" stroke="#003DC9" stroke-width="2"/>
</svg>
