<svg width="27" height="26" viewBox="0 0 27 26" fill="none" xmlns="http://www.w3.org/2000/svg">
<path d="M12.3659 0.5C15.4691 0.5 18 2.9875 18 6.05V12.0375H10.3692C9.82231 12.0375 9.3899 12.4625 9.3899 13C9.3899 13.525 9.82231 13.9625 10.3692 13.9625H18V19.9375C18 23 15.4691 25.5 12.3405 25.5H6.1468C3.03089 25.5 0.5 23.0125 0.5 19.95V6.0625C0.5 2.9875 3.0436 0.5 6.15952 0.5H12.3659ZM21.1752 8.68775C21.5502 8.30025 22.1627 8.30025 22.5378 8.67525L26.1877 12.3127C26.3752 12.5002 26.4752 12.7378 26.4752 13.0002C26.4752 13.2503 26.3752 13.5002 26.1877 13.6753L22.5378 17.3127C22.3502 17.5002 22.1003 17.6003 21.8628 17.6003C21.6128 17.6003 21.3627 17.5002 21.1752 17.3127C20.8002 16.9377 20.8002 16.3252 21.1752 15.9502L23.1752 13.9627H18.0002V12.0378H23.1752L21.1752 10.0503C20.8002 9.67525 20.8002 9.06275 21.1752 8.68775Z" fill="#DA3333"/>
</svg>
