<svg width="26" height="26" viewBox="0 0 26 26" fill="none" xmlns="http://www.w3.org/2000/svg">
<path d="M13 0.5C6.1075 0.5 0.5 6.1075 0.5 13V18.1787C0.5 19.4587 1.62125 20.5 3 20.5H4.25C4.58152 20.5 4.89946 20.3683 5.13388 20.1339C5.3683 19.8995 5.5 19.5815 5.5 19.25V12.8213C5.5 12.4897 5.3683 12.1718 5.13388 11.9374C4.89946 11.7029 4.58152 11.5713 4.25 11.5713H3.115C3.81 6.73375 7.9725 3 13 3C18.0275 3 22.19 6.73375 22.885 11.5713H21.75C21.4185 11.5713 21.1005 11.7029 20.8661 11.9374C20.6317 12.1718 20.5 12.4897 20.5 12.8213V20.5C20.5 21.8787 19.3787 23 18 23H15.5V21.75H10.5V25.5H18C20.7575 25.5 23 23.2575 23 20.5C24.3787 20.5 25.5 19.4587 25.5 18.1787V13C25.5 6.1075 19.8925 0.5 13 0.5Z" fill="#223468"/>
</svg>
