<svg width="36" height="42" viewBox="0 0 36 42" fill="none" xmlns="http://www.w3.org/2000/svg">
<path d="M13.7565 36.0582C14.7979 35.8378 21.1442 35.8378 22.1856 36.0582C23.076 36.2638 24.0388 36.7443 24.0388 37.7934C23.987 38.7922 23.4011 39.6777 22.5915 40.24C21.5417 41.0583 20.3097 41.5766 19.0219 41.7633C18.3096 41.8556 17.6097 41.8577 16.9223 41.7633C15.6324 41.5766 14.4004 41.0583 13.3527 40.2379C12.5411 39.6777 11.9551 38.7922 11.9033 37.7934C11.9033 36.7443 12.8661 36.2638 13.7565 36.0582ZM18.094 0.166687C22.4277 0.166687 26.8545 2.22298 29.4841 5.63474C31.1902 7.83161 31.9729 10.0264 31.9729 13.4381V14.3257C31.9729 16.9422 32.6645 18.4844 34.1863 20.2617C35.3396 21.571 35.7082 23.2517 35.7082 25.0751C35.7082 26.8963 35.1098 28.6253 33.9109 30.029C32.3415 31.7118 30.1281 32.7861 27.8691 32.9729C24.5956 33.252 21.32 33.487 18.0009 33.487C14.6797 33.487 11.4062 33.3464 8.13266 32.9729C5.87162 32.7861 3.65821 31.7118 2.09081 30.029C0.891962 28.6253 0.291504 26.8963 0.291504 25.0751C0.291504 23.2517 0.662131 21.571 1.81335 20.2617C3.38283 18.4844 4.02884 16.9422 4.02884 14.3257V13.4381C4.02884 9.93406 4.90261 7.64277 6.70191 5.39973C9.37705 2.12855 13.6652 0.166687 17.9077 0.166687H18.094Z" fill="#223468"/>
</svg>
