<svg width="24" height="26" viewBox="0 0 24 26" fill="none" xmlns="http://www.w3.org/2000/svg">
<path d="M12.8927 0.50051C13.5802 0.48801 14.2314 0.73676 14.7177 1.21301C15.2064 1.67426 15.4677 2.31301 15.4677 2.98801C15.4677 4.36301 16.6052 5.47676 18.0189 5.47676C18.4552 5.47676 18.8927 5.35051 19.2814 5.13801C20.4927 4.48676 22.0052 4.90051 22.6927 6.06301L23.5439 7.52551C23.7564 7.90051 23.8802 8.32551 23.8802 8.76301C23.8802 9.65051 23.3939 10.4768 22.6064 10.913C22.2177 11.1255 21.8927 11.4505 21.6689 11.8268C21.0052 13.0005 21.4189 14.4868 22.6064 15.1643C23.8052 15.8505 24.2177 17.3518 23.5439 18.538L22.6927 19.9518C22.2427 20.7255 21.4052 21.2018 20.5052 21.2018C20.0552 21.2018 19.6052 21.088 19.2314 20.863C18.8302 20.6505 18.3939 20.5255 17.9552 20.5255C17.2802 20.5255 16.6302 20.7893 16.1564 21.263C15.6677 21.7268 15.4052 22.363 15.4052 23.0255C15.4052 24.388 14.2689 25.5005 12.8552 25.5005H11.1439C10.4677 25.5005 9.83016 25.2255 9.36766 24.763C8.89266 24.288 8.64391 23.663 8.64391 23.013C8.64391 21.638 7.51766 20.5255 6.10641 20.5255C5.64266 20.5255 5.19266 20.6505 4.80516 20.8893C4.21766 21.213 3.51766 21.3005 2.86766 21.138C2.21766 20.963 1.65516 20.538 1.31766 19.9755L0.518911 18.563C0.142661 17.9768 0.030161 17.2755 0.206411 16.613C0.380161 15.9505 0.831411 15.388 1.44266 15.0505C1.83141 14.838 2.15516 14.5255 2.38016 14.138C3.03141 12.963 2.61766 11.488 1.44266 10.8005C0.255161 10.1255 -0.157339 8.63801 0.518911 7.46301L1.31766 6.06301C1.65516 5.47676 2.21766 5.05051 2.88016 4.87551C3.54391 4.70051 4.24266 4.79926 4.83016 5.13801C5.23016 5.35051 5.66766 5.46301 6.10641 5.46301C6.78141 5.46301 7.43016 5.20051 7.90516 4.73801C8.38016 4.27551 8.64391 3.63801 8.64391 2.98801C8.64391 1.61301 9.78016 0.50051 11.1927 0.50051H12.8927ZM13.3939 9.85176C12.0814 9.31301 10.5677 9.60051 9.55516 10.588C8.55516 11.563 8.24266 13.0505 8.79266 14.3268C9.33141 15.613 10.6052 16.4505 12.0302 16.4505H12.0439C12.9814 16.463 13.8564 16.1018 14.5177 15.4505C15.1802 14.813 15.5552 13.938 15.5552 13.0255C15.5677 11.638 14.7052 10.3755 13.3939 9.85176Z" fill="#223468"/>
</svg>
