<svg width="24" height="24" viewBox="0 0 24 24" fill="none" xmlns="http://www.w3.org/2000/svg">
<path fill-rule="evenodd" clip-rule="evenodd" d="M3.25 0.75C2.58696 0.75 1.95107 1.01339 1.48223 1.48223C1.01339 1.95107 0.75 2.58696 0.75 3.25V20.75C0.75 21.413 1.01339 22.0489 1.48223 22.5178C1.95107 22.9866 2.58696 23.25 3.25 23.25H20.75C21.413 23.25 22.0489 22.9866 22.5178 22.5178C22.9866 22.0489 23.25 21.413 23.25 20.75V3.25C23.25 2.58696 22.9866 1.95107 22.5178 1.48223C22.0489 1.01339 21.413 0.75 20.75 0.75H3.25ZM16.3325 6.67625C15.985 5.51875 14.3663 5.46375 13.9413 6.59625L11.4438 13.255L10.07 9.13375C9.715 8.06625 8.24625 7.9625 7.74375 8.9675L6.2275 12H5.75C5.41848 12 5.10054 12.1317 4.86612 12.3661C4.6317 12.6005 4.5 12.9185 4.5 13.25C4.5 13.5815 4.6317 13.8995 4.86612 14.1339C5.10054 14.3683 5.41848 14.5 5.75 14.5H6.9925C7.47 14.5 7.9075 14.23 8.12125 13.8025L8.64375 12.7588L10.1775 17.3612C10.5538 18.49 12.14 18.52 12.5575 17.4062L14.9938 10.9112L15.8 13.6C15.96 14.135 16.4513 14.5 17.0088 14.5H18.25C18.5815 14.5 18.8995 14.3683 19.1339 14.1339C19.3683 13.8995 19.5 13.5815 19.5 13.25C19.5 12.9185 19.3683 12.6005 19.1339 12.3661C18.8995 12.1317 18.5815 12 18.25 12H17.93L16.3325 6.67625Z" fill="#223468"/>
</svg>
