<svg width="21" height="21" viewBox="0 0 21 21" fill="none" xmlns="http://www.w3.org/2000/svg">
<path d="M19.8969 17.4619C20.5817 18.1467 20.5817 19.2119 19.8969 19.8967C19.5545 20.2391 19.136 20.3913 18.6795 20.3913C18.223 20.3913 17.8045 20.2391 17.4621 19.8967L10.5002 12.9348L3.53821 19.8967C3.19582 20.2391 2.77734 20.3913 2.32082 20.3913C1.8643 20.3913 1.44582 20.2391 1.10343 19.8967C0.418648 19.2119 0.418648 18.1467 1.10343 17.4619L8.06539 10.5L1.10343 3.53803C0.418648 2.85325 0.418648 1.78803 1.10343 1.10325C1.78821 0.418465 2.85343 0.418465 3.53821 1.10325L10.5002 8.0652L17.4621 1.10325C18.1469 0.418465 19.2121 0.418465 19.8969 1.10325C20.5817 1.78803 20.5817 2.85325 19.8969 3.53803L12.935 10.5L19.8969 17.4619Z" fill="white"/>
</svg>
