<svg width="24" height="26" viewBox="0 0 24 26" fill="none" xmlns="http://www.w3.org/2000/svg">
<path d="M14.565 1.29123C14.373 1.13432 14.1518 1.01704 13.9142 0.9462C13.6766 0.875356 13.4272 0.852347 13.1807 0.878504C12.9341 0.904661 12.6952 0.979465 12.4777 1.09859C12.2602 1.21771 12.0685 1.37878 11.9137 1.57248L6.48375 8.37498H8.88375L13.3781 2.74248L14.8219 3.92185L11.2031 8.37498H13.6181L16.275 5.10498L19.4963 7.7356L18.9375 8.37498H19.5C20.0592 8.37439 20.6153 8.45717 21.15 8.6206C21.3543 8.23741 21.4192 7.7952 21.3337 7.36946C21.2482 6.94373 21.0176 6.56086 20.6812 6.28623L14.565 1.29123ZM2.625 9.31248C2.625 9.06384 2.72377 8.82538 2.89959 8.64956C3.0754 8.47375 3.31386 8.37498 3.5625 8.37498H4.60875L6.09938 6.49998H3.5625C2.81658 6.49998 2.10121 6.79629 1.57376 7.32374C1.04632 7.85118 0.75 8.56656 0.75 9.31248V20.5625C0.75 21.8057 1.24386 22.998 2.12294 23.877C3.00201 24.7561 4.1943 25.25 5.4375 25.25H19.5C20.4946 25.25 21.4484 24.8549 22.1516 24.1516C22.8549 23.4484 23.25 22.4945 23.25 21.5V14C23.25 13.0054 22.8549 12.0516 22.1516 11.3483C21.4484 10.6451 20.4946 10.25 19.5 10.25H3.5625C3.31386 10.25 3.0754 10.1512 2.89959 9.97539C2.72377 9.79957 2.625 9.56112 2.625 9.31248ZM16.6875 17.75H18.5625C18.8111 17.75 19.0496 17.8487 19.2254 18.0246C19.4012 18.2004 19.5 18.4388 19.5 18.6875C19.5 18.9361 19.4012 19.1746 19.2254 19.3504C19.0496 19.5262 18.8111 19.625 18.5625 19.625H16.6875C16.4389 19.625 16.2004 19.5262 16.0246 19.3504C15.8488 19.1746 15.75 18.9361 15.75 18.6875C15.75 18.4388 15.8488 18.2004 16.0246 18.0246C16.2004 17.8487 16.4389 17.75 16.6875 17.75Z" fill="#223468"/>
</svg>
