<svg width="24" height="24" viewBox="0 0 24 24" fill="none" xmlns="http://www.w3.org/2000/svg">
<path fill-rule="evenodd" clip-rule="evenodd" d="M21.375 5.125C20.8777 5.125 20.4008 5.32254 20.0492 5.67417C19.6975 6.02581 19.5 6.50272 19.5 7V8.25H23.25V7C23.25 6.50272 23.0525 6.02581 22.7008 5.67417C22.3492 5.32254 21.8723 5.125 21.375 5.125ZM23.25 9.5H19.5V19.8125L21.375 22.625L23.25 19.8125V9.5ZM0.75 2.625V21.375C0.75 21.8723 0.947544 22.3492 1.29917 22.7008C1.65081 23.0525 2.12772 23.25 2.625 23.25H16.375C16.8723 23.25 17.3492 23.0525 17.7008 22.7008C18.0525 22.3492 18.25 21.8723 18.25 21.375V2.625C18.25 2.12772 18.0525 1.65081 17.7008 1.29917C17.3492 0.947544 16.8723 0.75 16.375 0.75H2.625C2.12772 0.75 1.65081 0.947544 1.29917 1.29917C0.947544 1.65081 0.75 2.12772 0.75 2.625ZM9.5 6.375C9.5 6.20924 9.56585 6.05027 9.68306 5.93306C9.80027 5.81585 9.95924 5.75 10.125 5.75H15.125C15.2908 5.75 15.4497 5.81585 15.5669 5.93306C15.6842 6.05027 15.75 6.20924 15.75 6.375C15.75 6.54076 15.6842 6.69973 15.5669 6.81694C15.4497 6.93415 15.2908 7 15.125 7H10.125C9.95924 7 9.80027 6.93415 9.68306 6.81694C9.56585 6.69973 9.5 6.54076 9.5 6.375ZM10.125 8.25C9.95924 8.25 9.80027 8.31585 9.68306 8.43306C9.56585 8.55027 9.5 8.70924 9.5 8.875C9.5 9.04076 9.56585 9.19973 9.68306 9.31694C9.80027 9.43415 9.95924 9.5 10.125 9.5H15.125C15.2908 9.5 15.4497 9.43415 15.5669 9.31694C15.6842 9.19973 15.75 9.04076 15.75 8.875C15.75 8.70924 15.6842 8.55027 15.5669 8.43306C15.4497 8.31585 15.2908 8.25 15.125 8.25H10.125ZM9.5 14.5C9.5 14.3342 9.56585 14.1753 9.68306 14.0581C9.80027 13.9408 9.95924 13.875 10.125 13.875H15.125C15.2908 13.875 15.4497 13.9408 15.5669 14.0581C15.6842 14.1753 15.75 14.3342 15.75 14.5C15.75 14.6658 15.6842 14.8247 15.5669 14.9419C15.4497 15.0592 15.2908 15.125 15.125 15.125H10.125C9.95924 15.125 9.80027 15.0592 9.68306 14.9419C9.56585 14.8247 9.5 14.6658 9.5 14.5ZM10.125 16.375C9.95924 16.375 9.80027 16.4408 9.68306 16.5581C9.56585 16.6753 9.5 16.8342 9.5 17C9.5 17.1658 9.56585 17.3247 9.68306 17.4419C9.80027 17.5592 9.95924 17.625 10.125 17.625H15.125C15.2908 17.625 15.4497 17.5592 15.5669 17.4419C15.6842 17.3247 15.75 17.1658 15.75 17C15.75 16.8342 15.6842 16.6753 15.5669 16.5581C15.4497 16.4408 15.2908 16.375 15.125 16.375H10.125ZM4.5 14.5V16.375H6.375V14.5H4.5ZM3.875 13.25H7C7.16576 13.25 7.32473 13.3158 7.44194 13.4331C7.55915 13.5503 7.625 13.7092 7.625 13.875V17C7.625 17.1658 7.55915 17.3247 7.44194 17.4419C7.32473 17.5592 7.16576 17.625 7 17.625H3.875C3.70924 17.625 3.55027 17.5592 3.43306 17.4419C3.31585 17.3247 3.25 17.1658 3.25 17V13.875C3.25 13.7092 3.31585 13.5503 3.43306 13.4331C3.55027 13.3158 3.70924 13.25 3.875 13.25ZM8.06688 6.81687C8.18072 6.699 8.24372 6.54112 8.2423 6.37725C8.24087 6.21338 8.17514 6.05662 8.05926 5.94074C7.94338 5.82486 7.78662 5.75913 7.62275 5.7577C7.45888 5.75628 7.301 5.81928 7.18312 5.93313L5.125 7.99125L4.31687 7.18312C4.199 7.06928 4.04112 7.00628 3.87725 7.0077C3.71338 7.00913 3.55662 7.07486 3.44074 7.19074C3.32486 7.30662 3.25913 7.46338 3.2577 7.62725C3.25628 7.79112 3.31928 7.949 3.43313 8.06688L5.125 9.75875L8.06688 6.81687Z" fill="#223468"/>
</svg>
